<svg id="Layer_1" data-name="Layer 1" xmlns="http://www.w3.org/2000/svg" viewBox="0 0 96 96"><defs><style>.cls-1{fill:#1dbbd8;}.cls-2{fill:#484749;}</style></defs><title>Artboard 3</title><path class="cls-1" d="M55.63,37H40.37a3.74,3.74,0,0,0-3.74,3.74V71.11A1.89,1.89,0,0,0,38.53,73H57.47a1.89,1.89,0,0,0,1.89-1.89V40.74A3.74,3.74,0,0,0,55.63,37ZM44.21,55.95a1.89,1.89,0,1,1,1.89-1.89A1.89,1.89,0,0,1,44.21,55.95Z"/><path class="cls-2" d="M83.75,28.6l0-.12-5.36-12A4,4,0,0,0,74.61,14H21.39a4,4,0,0,0-3.72,2.53l-5.36,12,0,.12A4,4,0,0,0,16,34h2V70h-.12C15.71,70,14,72,14,74.67v2.67C14,80,15.71,82,17.88,82H78.12C80.29,82,82,80,82,77.33V74.67C82,72,80.29,70,78.12,70H78V34h2a4,4,0,0,0,3.75-5.4ZM76,74h1.86a1.47,1.47,0,0,1,.14.67v2.67a1.47,1.47,0,0,1-.14.67H18.14a1.47,1.47,0,0,1-.14-.67V74.67a1.47,1.47,0,0,1,.14-.67H58M39.95,40,56,39.94V70H40ZM74,70H60V39.94A4,4,0,0,0,56.05,36H39.95A4,4,0,0,0,36,39.94V70H22V34H74Zm2-40H16l5.33-11.88,0-.12H74.61l0,.12L80,30Z"/></svg>